#!OML:ASF H:\Dans Jumps\Project 1\Capture day 1\Session 1\subject.ASF
:FULLY-SPECIFIED
:DEGREES
542
root 0.268876 16.8851 -13.4153 18.2026 2.20842 -0.535659
lowerback 16.0771 0.0643123 -0.602934
upperback 6.99921 0.0823598 2.48543
thorax -1.58021 -0.00401763 2.93689
lowerneck -16.0253 -0.0818116 -2.08949
upperneck 14.3013 0.319141 0.357665
head 7.00719 0.0701177 0.490901
rclavicle -5.1684e-015 1.74931e-014
rhumerus -15.1487 -2.68684 -83.8957
rradius 37.5485
rwrist 20.256
rhand -22.2064 -27.6369
rfingers 7.12502
rthumb 4.20944 -57.575
lclavicle -5.1684e-015 1.74931e-014
lhumerus -12.8693 -10.693 90.9556
lradius 28.7703
lwrist 21.3289
lhand -30.9022 -7.64108
lfingers 7.12502
lthumb -4.18872 22.2975
rfemur -42.0089 -5.26737 21.4645
rtibia 55.0071
rfoot -18.2733 -10.362
rtoes -6.27336
lfemur -43.0943 3.95985 -18.8365
ltibia 54.4357
lfoot -13.3609 10.4611
ltoes -11.4546
543
root 0.262616 16.9885 -13.3103 17.7377 2.18159 -0.484484
lowerback 15.7754 0.0920853 -0.664208
upperback 7.05815 0.105125 2.42967
thorax -1.3604 0.00454848 2.90671
lowerneck -15.5924 -0.118314 -2.09727
upperneck 14.5948 0.242886 0.467114
head 7.02912 0.0411691 0.519951
rclavicle 5.96354e-015 -1.19271e-015
rhumerus -14.9379 -2.48521 -84.0608
rradius 37.5383
rwrist 20.3851
rhand -22.293 -27.6114
rfingers 7.12502
rthumb 4.12582 -57.5512
lclavicle 5.96354e-015 -1.19271e-015
lhumerus -12.8071 -11.0448 91.0195
lradius 29.0739
lwrist 21.4669
lhand -30.8369 -7.65037
lfingers 7.12502
lthumb -4.12566 22.2894
rfemur -41.2595 -5.32969 21.2625
rtibia 54.79
rfoot -16.2616 -9.42629
rtoes -6.13374
lfemur -42.4339 3.98612 -18.8164
ltibia 54.2809
lfoot -11.205 9.54373
ltoes -11.4456
544
root 0.256498 17.149 -13.2033 17.2791 2.11713 -0.440067
lowerback 15.4864 0.127482 -0.727021
upperback 7.12103 0.138057 2.36796
thorax -1.1435 0.0180865 2.87002
lowerneck -15.1136 -0.149214 -2.09427
upperneck 14.8589 0.173783 0.55672
head 7.03331 0.014594 0.541537
rclavicle 0 -3.57812e-015
rhumerus -14.7275 -2.26303 -84.2267
rradius 37.5311
rwrist 20.5053
rhand -22.3192 -27.5623
rfingers 7.12502
rthumb 4.1005 -57.5026
lclavicle 0 -3.57812e-015
lhumerus -12.7698 -11.3778 91.0759
lradius 29.387
lwrist 21.5708
lhand -30.8287 -7.70713
lfingers 7.12502
lthumb -4.11773 22.2328
rfemur -40.4337 -5.41724 21.0682
rtibia 54.4537
rfoot -14.0241 -8.45788
rtoes -5.79325
lfemur -41.6575 4.08414 -18.8095
ltibia 53.9694
lfoot -8.85279 8.60539
ltoes -11.3653
545
root 0.250966 17.3125 -13.0974 16.8252 2.02321 -0.404157
lowerback 15.2151 0.16633 -0.78809
upperback 7.1871 0.176345 2.30401
thorax -0.932674 0.0342804 2.82976
lowerneck -14.606 -0.173813 -2.08731
upperneck 15.1027 0.114156 0.631527
head 7.02549 -0.00850204 0.55869
rclavicle 6.75868e-015 -1.11319e-014
rhumerus -14.5241 -2.00501 -84.3914
rradius 37.5268
rwrist 20.6431
rhand -22.3137 -27.5124
rfingers 7.12502
rthumb 4.10589 -57.4526
lclavicle 6.75868e-015 -1.11319e-014
lhumerus -12.7652 -11.678 91.1268
lradius 29.7142
lwrist 21.6597
lhand -30.8429 -7.7546
lfingers 7.12502
lthumb -4.13143 22.1851
rfemur -39.7123 -5.53611 20.8823
rtibia 54.1823
rfoot -11.5751 -7.50867
rtoes -5.26263
lfemur -40.9483 4.2379 -18.7996
ltibia 53.6854
lfoot -6.32578 7.68179
ltoes -11.1476
546
root 0.245949 17.477 -12.9928 16.3814 1.9064 -0.38354
lowerback 14.9626 0.206923 -0.84034
upperback 7.25239 0.218824 2.24321
thorax -0.732709 0.0527222 2.78777
lowerneck -14.085 -0.192649 -2.08554
upperneck 15.3331 0.0649412 0.696232
head 7.01058 -0.0278244 0.574545
rclavicle 2.38542e-015 -1.03368e-014
rhumerus -14.3394 -1.7144 -84.5483
rradius 37.5308
rwrist 20.7985
rhand -22.292 -27.4336
rfingers 7.12502
rthumb 4.12682 -57.3733
lclavicle 2.38542e-015 -1.03368e-014
lhumerus -12.8038 -11.9499 91.1757
lradius 30.0587
lwrist 21.7506
lhand -30.889 -7.80431
lfingers 7.12502
lthumb -4.17595 22.1345
rfemur -39.0422 -5.67352 20.713
rtibia 53.8318
rfoot -8.85405 -6.62617
rtoes -4.54109
lfemur -40.2517 4.42359 -18.7679
ltibia 53.2876
lfoot -3.58583 6.78764
ltoes -10.7919
547
root 0.241442 17.6409 -12.8892 15.9528 1.77012 -0.383243
lowerback 14.7258 0.248158 -0.880051
upperback 7.31604 0.264465 2.1896
thorax -0.542753 0.0729486 2.74634
lowerneck -13.5761 -0.204867 -2.08764
upperneck 15.5594 0.0275797 0.750827
head 6.99595 -0.0426437 0.589049
rclavicle -4.37326e-015 -5.1684e-015
rhumerus -14.1716 -1.38507 -84.6951
rradius 37.5478
rwrist 20.9627
rhand -22.246 -27.3773
rfingers 7.12502
rthumb 4.17124 -57.3162
lclavicle -4.37326e-015 -5.1684e-015
lhumerus -12.8911 -12.1873 91.2259
lradius 30.4242
lwrist 21.8514
lhand -30.9603 -7.88479
lfingers 7.12502
lthumb -4.2448 22.0527
rfemur -38.4739 -5.8147 20.5649
rtibia 53.5365
rfoot -5.97607 -5.86149
rtoes -3.49327
lfemur -39.6245 4.6174 -18.7003
ltibia 52.9255
lfoot -0.752361 5.97957
ltoes -10.1692
548
root 0.237328 17.802 -12.7871 15.5431 1.61937 -0.401393
lowerback 14.5071 0.289499 -0.90948
upperback 7.37467 0.312202 2.14534
thorax -0.367712 0.0944483 2.70912
lowerneck -13.0914 -0.211305 -2.10009
upperneck 15.7883 0.000872143 0.804321
head 6.98595 -0.0531295 0.606053
rclavicle 3.97569e-016 2.22639e-014
rhumerus -14.0288 -1.0272 -84.8262
rradius 37.5853
rwrist 21.1304
rhand -22.1825 -27.3182
rfingers 7.12502
rthumb 4.23258 -57.2559
lclavicle 3.97569e-016 2.22639e-014
lhumerus -13.0255 -12.3952 91.2792
lradius 30.8048
lwrist 21.9741
lhand -31.0506 -7.99375
lfingers 7.12502
lthumb -4.33195 21.9419
rfemur -38.0085 -5.94612 20.4369
rtibia 53.3004
rfoot -3.00504 -5.25016
rtoes -1.93916
lfemur -39.0716 4.79873 -18.5938
ltibia 52.6108
lfoot 2.13596 5.27454
ltoes -9.13512
549
root 0.233439 17.9582 -12.6869 15.1503 1.46036 -0.436378
lowerback 14.3172 0.329603 -0.924752
upperback 7.42464 0.360592 2.10739
thorax -0.216916 0.116807 2.67086
lowerneck -12.6429 -0.212507 -2.12108
upperneck 16.0251 -0.0175896 0.864563
head 6.98445 -0.0596529 0.627557
rclavicle -7.55382e-015 -1.39149e-014
rhumerus -13.9238 -0.652173 -84.9448
rradius 37.6517
rwrist 21.2855
rhand -22.1258 -27.2466
rfingers 7.12502
rthumb 4.28725 -57.1832
lclavicle -7.55382e-015 -1.39149e-014
lhumerus -13.2174 -12.5744 91.3328
lradius 31.2058
lwrist 22.1186
lhand -31.1441 -8.11566
lfingers 7.12502
lthumb -4.42228 21.8182
rfemur -37.6437 -6.06132 20.3329
rtibia 53.1256
rfoot -0.0226794 -4.81704
rtoes 0.275505
lfemur -38.597 4.95381 -18.4494
ltibia 52.3553
lfoot 5.02705 4.69674
ltoes -7.51298
550
root 0.229743 18.1075 -12.5887 14.7721 1.30203 -0.480074
lowerback 14.1599 0.365039 -0.930987
upperback 7.46791 0.404352 2.07415
thorax -0.0900447 0.137308 2.63344
lowerneck -12.2538 -0.206338 -2.14356
upperneck 16.2791 -0.025494 0.929236
head 6.99857 -0.0609012 0.651894
rclavicle -6.75868e-015 -1.19271e-015
rhumerus -13.8493 -0.27345 -85.0539
rradius 37.743
rwrist 21.4153
rhand -22.0739 -27.1628
rfingers 7.12502
rthumb 4.33739 -57.0984
lclavicle -6.75868e-015 -1.19271e-015
lhumerus -13.4558 -12.73 91.3832
lradius 31.6215
lwrist 22.3018
lhand -31.2527 -8.29109
lfingers 7.12502
lthumb -4.52713 21.6405
rfemur -37.3716 -6.16919 20.2516
rtibia 53.0121
rfoot 2.87772 -4.59826
rtoes 3.31449
lfemur -38.2007 5.07477 -18.2807
ltibia 52.1677
lfoot 7.83926 4.29329
ltoes -5.23085
551
root 0.225993 18.2482 -12.493 14.4067 1.14584 -0.528487
lowerback 14.0409 0.395555 -0.929686
upperback 7.50457 0.442789 2.04075
thorax 0.00983532 0.155693 2.59256
lowerneck -11.9211 -0.193881 -2.17331
upperneck 16.5408 -0.0257702 1.01195
head 7.02472 -0.0573786 0.684106
rclavicle 6.75868e-015 -3.97569e-016
rhumerus -13.8106 0.0956829 -85.1601
rradius 37.8634
rwrist 21.5163
rhand -22.0313 -27.0586
rfingers 7.12502
rthumb 4.37856 -56.9933
lclavicle 6.75868e-015 -3.97569e-016
lhumerus -13.7364 -12.859 91.4252
lradius 32.0478
lwrist 22.5237
lhand -31.3574 -8.42918
lfingers 7.12502
lthumb -4.6283 21.5003
rfemur -37.1851 -6.27183 20.1976
rtibia 52.9505
rfoot 5.60143 -4.66318
rtoes 7.18406
lfemur -37.8813 5.17366 -18.1022
ltibia 52.0522
lfoot 10.4112 4.13846
ltoes -2.54698
552
root 0.222167 18.3785 -12.4 14.0541 0.994929 -0.574208
lowerback 13.9599 0.419617 -0.926928
upperback 7.53579 0.473078 2.00445
thorax 0.0844049 0.170422 2.54905
lowerneck -11.6643 -0.173428 -2.19588
upperneck 16.8203 -0.015772 1.09749
head 7.06974 -0.0482526 0.717207
rclavicle 9.93923e-016 -9.93923e-015
rhumerus -13.8104 0.447068 -85.2672
rradius 38.0181
rwrist 21.571
rhand -21.9968 -26.9294
rfingers 7.12502
rthumb 4.41185 -56.8634
lclavicle 9.93923e-016 -9.93923e-015
lhumerus -14.0528 -12.9629 91.4551
lradius 32.4838
lwrist 22.7884
lhand -31.4812 -8.60818
lfingers 7.12502
lthumb -4.74782 21.3186
rfemur -37.0712 -6.37521 20.1702
rtibia 52.9208
rfoot 7.89989 -5.07334
rtoes 11.2286
lfemur -37.6347 5.26116 -17.9325
ltibia 52.0057
lfoot 12.5297 4.27346
ltoes 0.200209
553
root 0.218093 18.4975 -12.3093 13.722 0.848683 -0.614546
lowerback 13.9067 0.437597 -0.925373
upperback 7.55956 0.495341 1.96218
thorax 0.13676 0.181523 2.50109
lowerneck -11.47 -0.145933 -2.21278
upperneck 17.1042 0.00255815 1.18953
head 7.127 -0.0341322 0.752422
rclavicle -1.98785e-016 -1.19271e-015
rhumerus -13.8494 0.77256 -85.3807
rradius 38.2102
rwrist 21.5677
rhand -21.9503 -26.7884
rfingers 7.12502
rthumb 4.4568 -56.7215
lclavicle -1.98785e-016 -1.19271e-015
lhumerus -14.3949 -13.0321 91.4706
lradius 32.9128
lwrist 23.0854
lhand -31.6104 -8.79984
lfingers 7.12502
lthumb -4.87252 21.1241
rfemur -37.0198 -6.47443 20.1674
rtibia 52.8883
rfoot 9.62305 -5.81272
rtoes 15.0865
lfemur -37.4611 5.34845 -17.7827
ltibia 52.0126
lfoot 14.0312 4.66545
ltoes 2.72798
